<svg width="89" height="89" viewBox="0 0 89 89" fill="none" xmlns="http://www.w3.org/2000/svg">
    <path d="M29.6668 63.7833H26.7001C25.881 63.7833 25.2168 64.4475 25.2168 65.2667C25.2168 66.0858 25.881 66.75 26.7001 66.75H29.6668C30.486 66.75 31.1501 66.0858 31.1501 65.2667C31.1501 64.4475 30.486 63.7833 29.6668 63.7833Z"
          fill="#000"/>
    <path d="M71.2 63.7833H35.6C34.7809 63.7833 34.1167 64.4475 34.1167 65.2667C34.1167 66.0858 34.7809 66.75 35.6 66.75H71.2C72.0192 66.75 72.6834 66.0858 72.6834 65.2667C72.6834 64.4475 72.0192 63.7833 71.2 63.7833Z"
          fill="#000"/>
    <path d="M29.6668 54.8833H26.7001C25.881 54.8833 25.2168 55.5475 25.2168 56.3666C25.2168 57.1858 25.881 57.85 26.7001 57.85H29.6668C30.486 57.85 31.1501 57.1858 31.1501 56.3666C31.1501 55.5475 30.486 54.8833 29.6668 54.8833Z"
          fill="#000"/>
    <path d="M71.2 54.8833H35.6C34.7809 54.8833 34.1167 55.5475 34.1167 56.3666C34.1167 57.1858 34.7809 57.85 35.6 57.85H71.2C72.0192 57.85 72.6834 57.1858 72.6834 56.3666C72.6834 55.5475 72.0192 54.8833 71.2 54.8833Z"
          fill="#000"/>
    <path d="M29.6668 45.9833H26.7001C25.881 45.9833 25.2168 46.6475 25.2168 47.4667C25.2168 48.2858 25.881 48.95 26.7001 48.95H29.6668C30.486 48.95 31.1501 48.2858 31.1501 47.4667C31.1501 46.6475 30.486 45.9833 29.6668 45.9833Z"
          fill="#000"/>
    <path d="M71.2 45.9833H35.6C34.7809 45.9833 34.1167 46.6475 34.1167 47.4667C34.1167 48.2858 34.7809 48.95 35.6 48.95H71.2C72.0192 48.95 72.6834 48.2858 72.6834 47.4667C72.6834 46.6475 72.0192 45.9833 71.2 45.9833Z"
          fill="#000"/>
    <path d="M29.6668 37.0833H26.7001C25.881 37.0833 25.2168 37.7475 25.2168 38.5666C25.2168 39.3858 25.881 40.05 26.7001 40.05H29.6668C30.486 40.05 31.1501 39.3858 31.1501 38.5666C31.1501 37.7475 30.486 37.0833 29.6668 37.0833Z"
          fill="#000"/>
    <path d="M71.2 37.0833H35.6C34.7809 37.0833 34.1167 37.7475 34.1167 38.5666C34.1167 39.3858 34.7809 40.05 35.6 40.05H71.2C72.0192 40.05 72.6834 39.3858 72.6834 38.5666C72.6834 37.7475 72.0192 37.0833 71.2 37.0833Z"
          fill="#000"/>
    <path d="M29.6668 28.1833H26.7001C25.881 28.1833 25.2168 28.8475 25.2168 29.6667C25.2168 30.4859 25.881 31.15 26.7001 31.15H29.6668C30.486 31.15 31.1501 30.4859 31.1501 29.6667C31.1501 28.8475 30.486 28.1833 29.6668 28.1833Z"
          fill="#000"/>
    <path d="M71.2 28.1833H35.6C34.7809 28.1833 34.1167 28.8475 34.1167 29.6667C34.1167 30.4859 34.7809 31.15 35.6 31.15H71.2C72.0192 31.15 72.6834 30.4859 72.6834 29.6667C72.6834 28.8475 72.0192 28.1833 71.2 28.1833Z"
          fill="#000"/>
    <path d="M81.5639 22.1566C81.5565 22.0266 81.5311 21.8983 81.4882 21.7753C81.4719 21.7279 81.46 21.6819 81.4393 21.6359C81.3672 21.4746 81.2667 21.3274 81.1426 21.2013L60.3759 0.434617C60.2499 0.310573 60.1026 0.210077 59.9413 0.13795C59.8954 0.117183 59.8494 0.105317 59.8034 0.089C59.6793 0.0463542 59.5501 0.0203958 59.4192 0.0118667C59.394 0.0163167 59.3658 0 59.3332 0H17.7998C16.9807 0 16.3165 0.664162 16.3165 1.48333V5.93333H8.89984C8.08067 5.93333 7.4165 6.5975 7.4165 7.41667V87.5167C7.4165 88.3358 8.08067 89 8.89984 89H71.1998C72.019 89 72.6832 88.3358 72.6832 87.5167V80.1H80.0998C80.919 80.1 81.5832 79.4358 81.5832 78.6167V22.25C81.5832 22.2174 81.5668 22.1892 81.5639 22.1566ZM60.8165 5.0641L76.5191 20.7667H60.8165V5.0641ZM69.7165 86.0333H10.3832V8.9H16.3165V78.6167C16.3165 79.4358 16.9807 80.1 17.7998 80.1H69.7165V86.0333ZM78.6165 77.1333H19.2832V2.96667H57.8498V22.25C57.8498 23.0692 58.514 23.7333 59.3332 23.7333H78.6165V77.1333Z"
          fill="#000"/>
    <path d="M35.6001 13.35H26.7001C25.881 13.35 25.2168 14.0141 25.2168 14.8333V23.7333C25.2168 24.5525 25.881 25.2166 26.7001 25.2166H35.6001C36.4193 25.2166 37.0835 24.5525 37.0835 23.7333V14.8333C37.0835 14.0141 36.4193 13.35 35.6001 13.35ZM34.1168 22.25H28.1835V16.3166H34.1168V22.25Z"
          fill="#000"/>
</svg>
