<svg width="75" height="75" viewBox="0 0 75 75" fill="none" xmlns="http://www.w3.org/2000/svg">
    <path d="M73.7499 67.5H69.9999V43.75C69.9995 43.0597 69.4393 42.5005 68.749 42.501C68.3417 42.5013 67.9599 42.7 67.7262 43.0338L50.2262 68.0338C49.8306 68.5996 49.9685 69.3789 50.5343 69.7744C50.7442 69.9211 50.9939 69.9999 51.2499 70H67.4999V73.75C67.4999 74.4403 68.0596 75 68.7499 75C69.4403 75 69.9999 74.4403 69.9999 73.75V70H73.7499C74.4403 70 74.9999 69.4403 74.9999 68.75C74.9999 68.0597 74.4403 67.5 73.7499 67.5ZM67.4999 67.5H53.6499L67.4999 47.715V67.5Z"
          fill="#000"/>
    <path d="M51.25 72.5H36.4512L50.21 56.2987C50.2412 56.2615 50.2705 56.2228 50.2975 56.1825C52.8859 52.3515 52.0237 47.1648 48.335 44.3775C43.8498 41.1548 37.6014 42.1784 34.3789 46.6636C33.1569 48.3643 32.4997 50.4057 32.5 52.5C32.5 53.1903 33.0597 53.75 33.75 53.75C34.4403 53.75 35 53.1903 35 52.5C34.9995 48.3578 38.3572 44.9997 42.4992 44.9992C44.0692 44.999 45.5997 45.4915 46.875 46.4075C49.4589 48.3873 50.0606 52.0336 48.25 54.7387L32.7975 72.9412C32.3508 73.4676 32.4155 74.2564 32.9419 74.7031C33.1677 74.8946 33.4539 74.9998 33.75 75H51.25C51.9403 75 52.5 74.4403 52.5 73.75C52.5 73.0597 51.9403 72.5 51.25 72.5Z"
          fill="#000"/>
    <path d="M33.7775 66.2737C33.8036 65.5839 33.2653 65.0036 32.5755 64.9775C32.5753 64.9775 32.5752 64.9775 32.575 64.9775C16.2672 64.3722 3.17828 51.3067 2.54375 35H7.5C8.19031 35 8.75 34.4403 8.75 33.75C8.75 33.0597 8.19031 32.5 7.5 32.5H2.54375C3.16922 16.222 16.2219 3.16984 32.5 2.545V6.25C32.5 6.94031 33.0597 7.5 33.75 7.5C34.4403 7.5 35 6.94031 35 6.25V2.545C51.0553 3.16594 64.0134 15.8794 64.94 31.92L60.065 27.045C59.5684 26.5653 58.7772 26.5791 58.2975 27.0756C57.8297 27.56 57.8297 28.328 58.2975 28.8125L65.275 35.79C65.4064 35.9491 65.5758 36.0723 65.7675 36.1487C65.8164 36.1634 65.8661 36.1756 65.9162 36.185C66.002 36.2159 66.0908 36.2373 66.1812 36.2487C66.1937 36.2487 66.205 36.2487 66.2175 36.2487C66.23 36.2487 66.2412 36.2487 66.2525 36.2487C66.3476 36.2416 66.4417 36.2231 66.5325 36.1937C66.5839 36.1875 66.6348 36.178 66.685 36.165C66.8542 36.1048 67.0083 36.0084 67.1362 35.8825L74.2087 28.8125C74.6883 28.3159 74.6747 27.5247 74.1781 27.045C73.6937 26.5772 72.9258 26.5772 72.4412 27.045L67.445 32.0375C66.552 14.1203 51.7781 0.0439062 33.8387 0.0175C33.8075 0.01625 33.7812 0 33.75 0C33.7187 0 33.6925 0.01625 33.6612 0.0175C15.0909 0.0429687 0.0429687 15.0909 0.0175 33.6612C0.0175 33.6925 0 33.7187 0 33.75C0 33.7812 0.01625 33.8075 0.0175 33.8387C0.0485937 51.9508 14.383 66.8028 32.4825 67.4762H32.5287C33.2005 67.4761 33.752 66.945 33.7775 66.2737Z"
          fill="#000"/>
    <path d="M50.5439 16.9563C50.0557 16.4683 49.2645 16.4683 48.7764 16.9563L35.3439 30.3876C34.329 29.9351 33.1698 29.9351 32.1551 30.3876L25.7951 24.0276C25.2986 23.548 24.5071 23.5618 24.0276 24.0583C23.5598 24.5427 23.5598 25.3107 24.0276 25.7951L30.3751 32.1426C29.4839 34.0082 30.2739 36.2432 32.1396 37.1343C33.5717 37.8183 35.2795 37.5251 36.4014 36.4026C37.5293 35.2841 37.8198 33.5716 37.1239 32.1438L50.5439 18.7238C51.0318 18.2357 51.0318 17.4444 50.5439 16.9563ZM34.6342 34.6335C34.634 34.6337 34.634 34.6337 34.6339 34.6338C34.1395 35.1065 33.3607 35.1065 32.8664 34.6338C32.3781 34.1457 32.3781 33.3543 32.8661 32.866C33.3542 32.3777 34.1456 32.3777 34.6339 32.8657C35.1222 33.3538 35.1221 34.1454 34.6342 34.6335Z"
          fill="#000"/>
</svg>
