<svg width="75" height="62" viewBox="0 0 75 62" fill="none" xmlns="http://www.w3.org/2000/svg">
<path d="M70.7812 7.5H48.75V3.4375C48.7486 1.53953 47.2105 0.00140625 45.3125 0H29.6875C27.7895 0.00140625 26.2514 1.53953 26.25 3.4375V7.5H4.21875C1.89 7.50281 0.0028125 9.39 0 11.7187V57.0312C0.0028125 59.36 1.89 61.2472 4.21875 61.25H70.7812C73.11 61.2472 74.9972 59.36 75 57.0312V11.7187C74.9972 9.39 73.11 7.50281 70.7812 7.5ZM28.75 3.4375C28.7506 2.92 29.17 2.50062 29.6875 2.5H45.3125C45.83 2.50062 46.2494 2.92 46.25 3.4375V7.5H28.75V3.4375ZM72.5 57.0312C72.4986 57.9798 71.7298 58.7486 70.7812 58.75H4.21875C3.27016 58.7486 2.50141 57.9798 2.5 57.0312V28.385C6.20125 30.2 15.3825 33.58 32.5 33.74V37.5C32.5 38.1903 33.0597 38.75 33.75 38.75H41.25C41.9403 38.75 42.5 38.1903 42.5 37.5V33.74C59.6175 33.58 68.7988 30.2 72.5 28.385V57.0312ZM35 36.25V27.5H40V36.25H35ZM72.5 25.55C70.3625 26.765 61.4762 31.05 42.5 31.24V26.25C42.5 25.5597 41.9403 25 41.25 25H33.75C33.0597 25 32.5 25.5597 32.5 26.25V31.24C13.5262 31.0562 4.63875 26.7675 2.5 25.55V11.7187C2.50141 10.7702 3.27016 10.0014 4.21875 10H70.7812C71.7298 10.0014 72.4986 10.7702 72.5 11.7187V25.55Z" fill="#1DA336"/>
</svg>
