<svg width="75" height="75" viewBox="0 0 75 75" fill="none" xmlns="http://www.w3.org/2000/svg">
<g clip-path="url(#clip0_120_91)">
<path d="M54.6875 75C43.4875 75 34.375 65.8875 34.375 54.6875C34.375 43.4875 43.4875 34.375 54.6875 34.375C65.8875 34.375 75 43.4875 75 54.6875C75 65.8875 65.8875 75 54.6875 75ZM54.6875 37.5C45.2094 37.5 37.5 45.2094 37.5 54.6875C37.5 64.1656 45.2094 71.875 54.6875 71.875C64.1656 71.875 71.875 64.1656 71.875 54.6875C71.875 45.2094 64.1656 37.5 54.6875 37.5Z" fill="#1DA336"/>
<path d="M51.5623 62.5C51.1498 62.5 50.7498 62.3344 50.4561 62.0437L44.2061 55.7937C43.5967 55.1844 43.5967 54.1937 44.2061 53.5844C44.8154 52.975 45.8061 52.975 46.4154 53.5844L51.4842 58.6531L61.3217 47.4094C61.8904 46.7562 62.8779 46.6906 63.5279 47.2625C64.1779 47.8312 64.2436 48.8187 63.6748 49.4687L52.7373 61.9687C52.4529 62.2937 52.0436 62.4875 51.6123 62.5C51.5967 62.5 51.5779 62.5 51.5623 62.5Z" fill="#1DA336"/>
<path d="M29.6875 75C27.5812 75 25.6187 74.1781 24.1625 72.6844L2.3 50.8219C0.821875 49.3813 0 47.4188 0 45.3125C0 43.3125 0.7875 41.3562 2.15937 39.9437L37.375 3.41563C39.4594 1.21563 42.2844 0 45.3125 0H67.1875C71.4938 0 75 3.50625 75 7.8125V29.6875C75 31.0406 74.7531 32.3625 74.2469 33.7313C73.9469 34.5406 73.0469 34.9594 72.2375 34.6531C71.4281 34.3531 71.0156 33.4531 71.3156 32.6437C71.6906 31.6313 71.875 30.6656 71.875 29.6875V7.8125C71.875 5.22813 69.7719 3.125 67.1875 3.125H45.3125C43.15 3.125 41.1312 3.99375 39.6344 5.575L4.40625 42.1156C3.59062 42.9562 3.125 44.1188 3.125 45.3125C3.125 46.5687 3.6125 47.7375 4.49687 48.6L26.3844 70.4875C27.8625 72.0031 30.3375 72.3 32.1 71.1781C32.8344 70.7156 33.7938 70.9312 34.2562 71.6625C34.7188 72.3937 34.5031 73.3562 33.7719 73.8187C32.5563 74.5938 31.1437 75 29.6875 75Z" fill="#1DA336"/>
<path d="M59.375 21.875C55.9281 21.875 53.125 19.0719 53.125 15.625C53.125 12.1781 55.9281 9.375 59.375 9.375C62.8219 9.375 65.625 12.1781 65.625 15.625C65.625 19.0719 62.8219 21.875 59.375 21.875ZM59.375 12.5C57.6531 12.5 56.25 13.9031 56.25 15.625C56.25 17.3469 57.6531 18.75 59.375 18.75C61.0969 18.75 62.5 17.3469 62.5 15.625C62.5 13.9031 61.0969 12.5 59.375 12.5Z" fill="#1DA336"/>
</g>
<defs>
<clipPath id="clip0_120_91">
<rect width="75" height="75" fill="white"/>
</clipPath>
</defs>
</svg>
