<svg width="86" height="86" viewBox="0 0 86 86" fill="none" xmlns="http://www.w3.org/2000/svg">
<path d="M29 29L57 57" stroke="#DF382A" stroke-width="2" stroke-linecap="round" stroke-linejoin="round"/>
<path d="M29 57L57 29" stroke="#DF382A" stroke-width="2" stroke-linecap="round" stroke-linejoin="round"/>
<path d="M43 4.2998C35.3459 4.2998 27.8636 6.56952 21.4994 10.8219C15.1353 15.0743 10.175 21.1185 7.24587 28.19C4.31676 35.2615 3.55037 43.0427 5.04361 50.5498C6.53686 58.0569 10.2227 64.9525 15.635 70.3648C21.0473 75.7771 27.9429 79.4629 35.45 80.9562C42.9571 82.4494 50.7383 81.6831 57.8099 78.7539C64.8814 75.8248 70.9255 70.8646 75.1779 64.5004C79.4303 58.1362 81.7 50.6539 81.7 42.9998C81.6999 32.736 77.6225 22.8925 70.3649 15.6349C63.1073 8.37729 53.2638 4.29994 43 4.2998ZM69.1488 69.1485C63.0991 75.1981 55.139 78.9629 46.6248 79.8015C38.1105 80.64 29.5689 78.5004 22.4554 73.7472C15.3418 68.994 10.0964 61.9214 7.6129 53.7343C5.12942 45.5473 5.56151 36.7524 8.83556 28.8482C12.1096 20.944 18.023 14.4196 25.5683 10.3866C33.1135 6.3536 41.8237 5.06158 50.2147 6.73067C58.6058 8.39977 66.1585 12.9267 71.586 19.5402C77.0135 26.1536 79.98 34.4444 79.98 42.9998C79.9865 47.857 79.0329 52.6677 77.1741 57.1552C75.3153 61.6427 72.588 65.7186 69.1488 69.1485Z" fill="#DF382A"/>
</svg>
