<svg width="18" height="8" viewBox="0 0 18 8" fill="none" xmlns="http://www.w3.org/2000/svg">
<g clip-path="url(#clip0_113_608)">
<path d="M7.87496 5.59993C7.03362 5.59993 6.3515 4.8836 6.3515 3.99999C6.3515 3.11629 7.03362 2.39997 7.87496 2.39997C8.71636 2.39997 9.39841 3.11629 9.39841 3.99999C9.39841 4.8836 8.71635 5.59993 7.87496 5.59993ZM1.51168 5.59993C0.676823 5.59993 0 4.8836 0 3.99999C0 3.11629 0.676823 2.39997 1.51168 2.39997C2.34659 2.39997 3.02342 3.11629 3.02342 3.99999C3.02342 4.8836 2.34659 5.59993 1.51168 5.59993ZM13.715 7.77072C13.4241 7.46044 13.4241 6.95739 13.715 6.64715L16.1966 4.00001L13.715 1.35288C13.4241 1.0426 13.4241 0.53955 13.715 0.229262C14.0059 -0.080978 14.4774 -0.080978 14.7683 0.229262L17.6826 3.33788C17.7186 3.36456 17.7529 3.39502 17.785 3.42927C17.9326 3.58669 18.0053 3.7937 18.0031 4C18.0053 4.20629 17.9326 4.41333 17.785 4.57076C17.753 4.60498 17.7187 4.63544 17.6826 4.66211L14.7683 7.77072C14.4774 8.08092 14.0059 8.08092 13.715 7.77072H13.715Z" fill="#1DA336"/>
</g>
<defs>
<clipPath id="clip0_113_608">
<rect width="18" height="8" fill="white"/>
</clipPath>
</defs>
</svg>
