<svg width="34" height="33" viewBox="0 0 34 33" fill="none" xmlns="http://www.w3.org/2000/svg">
<path d="M15.8149 1.51017C16.3779 0.444484 17.9043 0.444482 18.4674 1.51016L22.6472 9.42109C22.8644 9.83217 23.2599 10.1193 23.718 10.1985L32.5407 11.7228C33.7298 11.9283 34.2019 13.3824 33.3602 14.2471L27.1224 20.6562C26.7976 20.9899 26.6462 21.4554 26.7126 21.9162L27.9869 30.7647C28.1588 31.9582 26.9235 32.8565 25.8411 32.325L17.8022 28.3778C17.3853 28.1731 16.897 28.1731 16.48 28.3778L8.44113 32.325C7.35872 32.8565 6.12344 31.9583 6.29533 30.7647L7.56963 21.9162C7.636 21.4554 7.48461 20.9899 7.15987 20.6562L0.922032 14.2471C0.080374 13.3824 0.552457 11.9283 1.74157 11.7228L10.5642 10.1985C11.0223 10.1193 11.4179 9.83217 11.6351 9.42109L15.8149 1.51017Z" fill="#F9C758"/>
</svg>
