<?xml version="1.0" encoding="utf-8"?><!DOCTYPE svg PUBLIC "-//W3C//DTD SVG 1.1//EN" "http://www.w3.org/Graphics/SVG/1.1/DTD/svg11.dtd"><svg viewBox="0 0 500 500" xmlns="http://www.w3.org/2000/svg" xmlns:xlink="http://www.w3.org/1999/xlink"><style>:root>svg{display:none}:root>svg:target{display:block}</style><svg version="1.1" id="ambulance" viewBox="0 0 512 512" xml:space="preserve" xmlns="http://www.w3.org/2000/svg"><style>.aast0{fill:#000}</style><path class="aast0" d="M489.844 249.438l-54.703-24.844a23.275 23.275 0 01-8.344-6.406l-72.469-99.328-.234-.328a37.825 37.825 0 00-29.25-13.844h-265.5c-17.047 0-31.969 11.406-36.469 27.844l-.047.203-21.547 89.828A37.745 37.745 0 000 232.281v106.813c0 20.844 16.906 37.766 37.781 37.766h14.922a7.222 7.222 0 005.531-2.578 7.26 7.26 0 001.547-5.922c-.656-3.516-1.031-7.078-1.031-10.672.016-16.219 6.594-30.859 17.234-41.531 10.672-10.656 25.313-17.219 41.516-17.219 16.219 0 30.875 6.563 41.531 17.219 10.656 10.672 17.219 25.313 17.219 41.531 0 3.594-.375 7.156-1.016 10.672a7.205 7.205 0 001.547 5.922c1.344 1.625 3.391 2.578 5.531 2.578h142.984a7.246 7.246 0 005.531-2.578 7.318 7.318 0 001.547-5.922c-.656-3.516-1.031-7.078-1.031-10.672 0-16.219 6.578-30.859 17.234-41.531 10.656-10.656 25.297-17.219 41.516-17.219 16.203 0 30.859 6.563 41.531 17.219 10.656 10.672 17.219 25.313 17.234 41.531 0 3.594-.391 7.156-1.031 10.672a7.205 7.205 0 001.547 5.922c1.344 1.625 3.391 2.578 5.531 2.578h19.313c20.875 0 37.781-16.922 37.781-37.766v-55.25c.001-14.813-8.655-28.25-22.155-34.406zM44.625 362.469h-6.844c-6.469 0-12.281-2.594-16.531-6.844a23.223 23.223 0 01-6.203-11.156h30.578c-.781 4.313-1.25 8.719-1.25 13.219 0 1.625.125 3.218.25 4.781zm1.75-21.578H14.469c-.031-.609-.094-1.188-.094-1.797v-19.781h41a72.716 72.716 0 00-9 21.578zm270.813 21.578H190.406c.125-1.594.25-3.156.25-4.781 0-4.5-.469-8.906-1.266-13.219h128.828c-.797 4.313-1.266 8.719-1.266 13.219.001 1.625.142 3.187.236 4.781zm1.781-21.578H188.625a72.66 72.66 0 00-8.969-21.578h148.281a73.497 73.497 0 00-8.968 21.578zm-304.594-59.36v-49.25c0-2.063.281-4.156.844-6.156l.063-.219L33 151.969h23.703c3.094 0 5.609-2.5 5.609-5.594v-27.313h214.656c0 .094-.031.188-.031.281v27.031a5.598 5.598 0 005.594 5.594h74.188a5.515 5.515 0 003.203-1.031l55.422 75.969.25.313a37.696 37.696 0 0013.594 10.469l54.703 24.875c7.656 3.469 12.734 10.75 13.547 18.969H14.375zm476.375 74.094c-4.25 4.25-10.063 6.844-16.531 6.844H463c.125-1.594.25-3.156.25-4.781-.016-4.5-.469-8.906-1.266-13.219h34.969a23.223 23.223 0 01-6.203 11.156zm6.875-16.531c0 .609-.063 1.188-.094 1.797h-36.313a73.082 73.082 0 00-8.969-21.578h45.375v19.781z"/><path class="aast0" d="M117.5 308.031c-27.406 0-49.625 22.234-49.625 49.656 0 27.406 22.219 49.625 49.625 49.625 27.422 0 49.656-22.219 49.656-49.625 0-27.421-22.234-49.656-49.656-49.656zm0 69.969c-11.219 0-20.328-9.094-20.328-20.313 0-11.25 9.109-20.344 20.328-20.344 11.234 0 20.344 9.094 20.344 20.344 0 11.219-9.11 20.313-20.344 20.313zM390.094 308.031c-27.406 0-49.625 22.234-49.625 49.656 0 27.406 22.219 49.625 49.625 49.625s49.641-22.219 49.641-49.625c-.001-27.421-22.235-49.656-49.641-49.656zm0 69.969c-11.219 0-20.328-9.094-20.328-20.313 0-11.25 9.109-20.344 20.328-20.344 11.234 0 20.344 9.094 20.344 20.344 0 11.219-9.11 20.313-20.344 20.313zM357.891 177.813v.031a8.658 8.658 0 00-7.031-3.625h-66.61a8.69 8.69 0 00-8.688 8.688v65.359a8.69 8.69 0 008.688 8.688h113.891c3.266 0 6.266-1.828 7.734-4.734a8.495 8.495 0 00.969-3.953 8.71 8.71 0 00-1.656-5.109l-47.297-65.345zm41.593 71.125a1.52 1.52 0 01-1.344.828H284.25a1.51 1.51 0 01-1.5-1.5v-65.359c0-.813.688-1.484 1.5-1.484h66.609c.484 0 .938.234 1.203.609v.016l47.313 65.328.266.891-.157.671zM167.563 157.438h-28.782v29.671h-29.656v28.782h29.656v29.672h28.782v-29.672h29.671v-28.782h-29.671z"/></svg><svg viewBox="0 0 24 24" fill="none" id="arrow-benef" xmlns="http://www.w3.org/2000/svg"><path d="M8.91 19.92l6.52-6.52c.77-.77.77-2.03 0-2.8L8.91 4.08" stroke="#292D32" stroke-width="1.5" stroke-miterlimit="10" stroke-linecap="round" stroke-linejoin="round"/></svg><svg fill="none" viewBox="0 0 75 62" id="benif_1" xmlns="http://www.w3.org/2000/svg"><path d="M70.781 7.5H48.75V3.437A3.44 3.44 0 0045.312 0H29.688a3.44 3.44 0 00-3.438 3.438V7.5H4.219A4.224 4.224 0 000 11.719V57.03a4.224 4.224 0 004.219 4.219H70.78A4.224 4.224 0 0075 57.031V11.72A4.224 4.224 0 0070.781 7.5zM28.75 3.437c0-.517.42-.936.938-.937h15.625c.517 0 .936.42.937.938V7.5h-17.5V3.437zM72.5 57.032a1.721 1.721 0 01-1.719 1.719H4.22A1.721 1.721 0 012.5 57.031V28.385c3.701 1.815 12.883 5.195 30 5.355v3.76c0 .69.56 1.25 1.25 1.25h7.5c.69 0 1.25-.56 1.25-1.25v-3.76c17.117-.16 26.299-3.54 30-5.355v28.646zM35 36.25V27.5h5v8.75h-5zm37.5-10.7c-2.138 1.215-11.024 5.5-30 5.69v-4.99c0-.69-.56-1.25-1.25-1.25h-7.5c-.69 0-1.25.56-1.25 1.25v4.99c-18.974-.184-27.861-4.473-30-5.69V11.719A1.721 1.721 0 014.219 10H70.78c.949.001 1.718.77 1.719 1.719V25.55z" fill="#1DA336"/></svg><svg fill="none" viewBox="0 0 75 75" id="benif_2" xmlns="http://www.w3.org/2000/svg"><path d="M73.75 67.5H70V43.75a1.25 1.25 0 00-2.274-.716l-17.5 25A1.25 1.25 0 0051.25 70H67.5v3.75a1.25 1.25 0 002.5 0V70h3.75a1.25 1.25 0 000-2.5zm-6.25 0H53.65L67.5 47.715V67.5z" fill="#000"/><path d="M51.25 72.5H36.451L50.21 56.299c.031-.038.06-.076.087-.117a8.695 8.695 0 00-1.962-11.805c-4.485-3.222-10.734-2.199-13.956 2.287A10 10 0 0032.5 52.5a1.25 1.25 0 002.5 0 7.5 7.5 0 0111.875-6.093 6.171 6.171 0 011.375 8.332L32.797 72.94A1.25 1.25 0 0033.75 75h17.5a1.25 1.25 0 000-2.5z" fill="#000"/><path d="M33.778 66.274a1.25 1.25 0 00-1.203-1.296C16.267 64.372 3.178 51.307 2.544 35H7.5a1.25 1.25 0 000-2.5H2.544C3.169 16.222 16.222 3.17 32.5 2.545V6.25a1.25 1.25 0 002.5 0V2.545c16.055.62 29.013 13.334 29.94 29.375l-4.875-4.875a1.25 1.25 0 00-1.767 1.767l6.977 6.978c.131.16.3.282.492.359.05.014.1.027.15.036.085.03.174.052.264.064H66.252a1.2 1.2 0 00.28-.055c.052-.007.103-.016.153-.029.17-.06.323-.157.451-.282l7.073-7.07a1.25 1.25 0 00-1.768-1.768l-4.996 4.992C66.552 14.12 51.778.045 33.839.017 33.807.017 33.78 0 33.75 0c-.031 0-.057.016-.089.018C15.091.043.043 15.09.017 33.66c0 .032-.017.058-.017.089 0 .031.016.057.018.089.03 18.112 14.365 32.964 32.465 33.637h.046a1.25 1.25 0 001.248-1.202z" fill="#000"/><path d="M50.544 16.956a1.25 1.25 0 00-1.768 0L35.344 30.388a3.915 3.915 0 00-3.189 0l-6.36-6.36a1.25 1.25 0 00-1.767 1.767l6.347 6.348a3.744 3.744 0 006.026 4.26 3.71 3.71 0 00.723-4.26l13.42-13.42a1.25 1.25 0 000-1.767zm-15.91 17.677a1.279 1.279 0 01-1.768 0 1.25 1.25 0 111.768 0z" fill="#000"/></svg><svg fill="none" viewBox="0 0 89 89" id="benif_3" xmlns="http://www.w3.org/2000/svg"><path d="M29.667 63.783H26.7a1.483 1.483 0 000 2.967h2.967a1.483 1.483 0 000-2.967zM71.2 63.783H35.6a1.483 1.483 0 000 2.967h35.6a1.483 1.483 0 000-2.967zM29.667 54.883H26.7a1.483 1.483 0 000 2.967h2.967a1.483 1.483 0 000-2.967zM71.2 54.883H35.6a1.483 1.483 0 000 2.967h35.6a1.483 1.483 0 000-2.967zM29.667 45.983H26.7a1.483 1.483 0 000 2.967h2.967a1.483 1.483 0 000-2.967zM71.2 45.983H35.6a1.483 1.483 0 000 2.967h35.6a1.483 1.483 0 000-2.967zM29.667 37.083H26.7a1.483 1.483 0 000 2.967h2.967a1.483 1.483 0 000-2.967zM71.2 37.083H35.6a1.483 1.483 0 000 2.967h35.6a1.483 1.483 0 000-2.967zM29.667 28.183H26.7a1.483 1.483 0 000 2.967h2.967a1.483 1.483 0 000-2.967zM71.2 28.183H35.6a1.483 1.483 0 000 2.967h35.6a1.483 1.483 0 100-2.967z" fill="#000"/><path d="M81.564 22.157a1.399 1.399 0 00-.076-.382c-.016-.047-.028-.093-.049-.14a1.482 1.482 0 00-.296-.434L60.376.435a1.482 1.482 0 00-.435-.297c-.046-.02-.092-.033-.138-.049a1.478 1.478 0 00-.384-.077C59.394.016 59.366 0 59.333 0H17.8c-.82 0-1.483.664-1.483 1.483v4.45H8.9c-.82 0-1.484.665-1.484 1.484v80.1c0 .819.665 1.483 1.484 1.483h62.3c.819 0 1.483-.664 1.483-1.483V80.1H80.1c.819 0 1.483-.664 1.483-1.483V22.25c0-.033-.016-.06-.02-.093zM60.817 5.064l15.702 15.703H60.816V5.064zm8.9 80.97H10.382V8.9h5.934v69.717c0 .819.664 1.483 1.483 1.483h51.916v5.933zm8.9-8.9H19.282V2.966H57.85V22.25c0 .82.664 1.483 1.483 1.483h19.284v53.4z" fill="#000"/><path d="M35.6 13.35h-8.9c-.819 0-1.483.664-1.483 1.483v8.9c0 .82.664 1.484 1.483 1.484h8.9c.82 0 1.483-.665 1.483-1.484v-8.9c0-.819-.664-1.483-1.483-1.483zm-1.483 8.9h-5.933v-5.933h5.933v5.933z" fill="#000"/></svg><svg viewBox="0 0 75 75" id="benif_4" xmlns="http://www.w3.org/2000/svg"><g clip-path="url(#afclip0_120_91)" fill="#1DA336"><path d="M54.688 75c-11.2 0-20.313-9.112-20.313-20.313 0-11.2 9.112-20.312 20.313-20.312 11.2 0 20.312 9.112 20.312 20.313C75 65.888 65.888 75 54.687 75zm0-37.5c-9.479 0-17.188 7.71-17.188 17.188 0 9.478 7.71 17.187 17.188 17.187 9.478 0 17.187-7.71 17.187-17.188 0-9.478-7.71-17.187-17.188-17.187z"/><path d="M51.562 62.5c-.412 0-.812-.166-1.106-.456l-6.25-6.25a1.563 1.563 0 012.21-2.21l5.068 5.07 9.838-11.245a1.557 1.557 0 012.206-.146c.65.568.716 1.556.147 2.206l-10.938 12.5a1.559 1.559 0 01-1.125.531h-.05z"/><path d="M29.688 75a7.65 7.65 0 01-5.525-2.316L2.3 50.822C.822 49.382 0 47.419 0 45.312c0-2 .787-3.956 2.16-5.368L37.374 3.416A10.846 10.846 0 0145.313 0h21.874C71.495 0 75 3.506 75 7.813v21.875c0 1.353-.247 2.674-.753 4.043-.3.81-1.2 1.228-2.01.922-.809-.3-1.221-1.2-.921-2.01.375-1.012.559-1.977.559-2.956V7.813a4.693 4.693 0 00-4.688-4.687H45.314a7.752 7.752 0 00-5.679 2.45L4.406 42.115a4.617 4.617 0 00-1.281 3.197c0 1.257.487 2.425 1.372 3.288l21.887 21.887c1.479 1.516 3.953 1.813 5.716.691a1.56 1.56 0 012.156.484 1.56 1.56 0 01-.484 2.157A7.578 7.578 0 0129.688 75z"/><path d="M59.375 21.875a6.256 6.256 0 01-6.25-6.25 6.256 6.256 0 016.25-6.25 6.256 6.256 0 016.25 6.25 6.256 6.256 0 01-6.25 6.25zm0-9.375a3.13 3.13 0 00-3.125 3.125 3.13 3.13 0 003.125 3.125 3.13 3.13 0 003.125-3.125 3.13 3.13 0 00-3.125-3.125z"/></g><defs><clipPath id="afclip0_120_91"><path fill="#fff" d="M0 0h75v75H0z"/></clipPath></defs></svg><svg viewBox="0 0 32 32" id="bulb" xmlns="http://www.w3.org/2000/svg"><path d="M20 24h-8c-.6 0-1 .4-1 1s.4 1 1 1h.1c.2 2 1.9 3.5 3.9 3.5s3.7-1.5 3.9-3.5h.1c.6 0 1-.4 1-1s-.4-1-1-1zM22 5.3c-1.9-1.7-4.5-2.5-7-2.2-4 .4-7.3 3.6-7.9 7.5-.4 2.8.4 5.6 2.4 7.7 1 1 1.5 2.4 1.5 3.8 0 .6.4 1 1 1h4c-.4 0-.8-.3-.9-.7l-4-11c-.2-.4 0-.9.3-1.1.4-.3.8-.3 1.2 0 2 1.5 4.8 1.5 6.8 0 .4-.3 1.1-.2 1.4.2.3.4.2 1.1-.2 1.4-2 1.5-4.5 1.9-6.8 1.2l2.2 6.1 1.6-4.4c.2-.5.8-.8 1.3-.6.5.2.8.8.6 1.3l-2.5 7c-.2.2-.6.5-1 .5h4c.6 0 1-.4 1-1 0-1.4.5-2.8 1.5-3.7A9.1 9.1 0 0025 12c0-2.6-1.1-5-3-6.7z"/></svg><svg fill="none" viewBox="0 0 86 86" id="check-false" xmlns="http://www.w3.org/2000/svg"><path d="M29 29l28 28M29 57l28-28" stroke="#DF382A" stroke-width="2" stroke-linecap="round" stroke-linejoin="round"/><path d="M43 4.3a38.7 38.7 0 100 77.4 38.7 38.7 0 000-77.4zm26.149 64.849a36.98 36.98 0 1110.831-26.15 36.86 36.86 0 01-10.831 26.15z" fill="#DF382A"/></svg><svg fill="none" viewBox="0 0 86 86" id="check-right" xmlns="http://www.w3.org/2000/svg"><path d="M29 45l8 8M37 53l20-20" stroke="#1DA336" stroke-width="2" stroke-linecap="round" stroke-linejoin="round"/><path d="M43 4.3a38.7 38.7 0 100 77.4 38.7 38.7 0 000-77.4zm26.149 64.849a36.98 36.98 0 1110.831-26.15 36.86 36.86 0 01-10.831 26.15z" fill="#1DA336"/></svg><svg viewBox="0 0 32 32" id="clock" xmlns="http://www.w3.org/2000/svg"><g color="#000" fill-rule="evenodd"><path d="M16 24.953a1.06 1.06 0 00-1.06 1.06A1.06 1.06 0 0016 27.075a1.06 1.06 0 001.06-1.06 1.06 1.06 0 00-1.06-1.06zM21.914 22.475a1.06 1.06 0 00-.676.306 1.06 1.06 0 000 1.5 1.06 1.06 0 001.5 0 1.06 1.06 0 000-1.5 1.06 1.06 0 00-.824-.306zM9.936 22.475a1.06 1.06 0 00-.674.306 1.06 1.06 0 000 1.5 1.06 1.06 0 001.5 0 1.06 1.06 0 000-1.5 1.06 1.06 0 00-.826-.306zM24.469 16.482a1.06 1.06 0 00-1.06 1.061 1.06 1.06 0 001.06 1.06 1.06 1.06 0 001.062-1.06 1.06 1.06 0 00-1.062-1.06zM7.531 16.482a1.06 1.06 0 00-1.062 1.061 1.06 1.06 0 001.062 1.06 1.06 1.06 0 001.06-1.06 1.06 1.06 0 00-1.06-1.06zM16 12.014a1 1 0 00-1 1v4.584l-2.707 2.709a1 1 0 000 1.414 1 1 0 001.414 0l3-3a1 1 0 00.293-.707v-5a1 1 0 00-1-1zM21.914 10.496a1.06 1.06 0 00-.676.309 1.06 1.06 0 000 1.5 1.06 1.06 0 001.5 0 1.06 1.06 0 000-1.5 1.06 1.06 0 00-.824-.309zM9.936 10.496a1.06 1.06 0 00-.674.309 1.06 1.06 0 000 1.5 1.06 1.06 0 001.5 0 1.06 1.06 0 000-1.5 1.06 1.06 0 00-.826-.309zM16 8.014a1.06 1.06 0 00-1.06 1.06 1.06 1.06 0 001.06 1.06 1.06 1.06 0 001.06-1.06A1.06 1.06 0 0016 8.014z" style="-inkscape-stroke:none"/><path d="M14 2.014a1 1 0 00-1 1 1 1 0 001 1h1v1.043c-6.425.511-11.5 5.902-11.5 12.457 0 6.891 5.608 12.5 12.5 12.5s12.5-5.609 12.5-12.5c0-2.496-.738-4.822-2.004-6.776a1 1 0 00.111-.09l2.122-2.12a1 1 0 000-1.415L25.9 4.285a1 1 0 00-1.414 0l-2.12 2.121a1 1 0 00-.178.254A12.408 12.408 0 0017 5.057V4.014h1a1 1 0 001-1 1 1 0 00-1-1zm11.193 4.392l1.414 1.414-.707.707-1.414-1.414zM16 7.014c5.81 0 10.5 4.689 10.5 10.5 0 5.81-4.69 10.5-10.5 10.5s-10.5-4.69-10.5-10.5c0-5.811 4.69-10.5 10.5-10.5z" style="-inkscape-stroke:none"/></g></svg><svg viewBox="0 0 512 512" id="cut" xmlns="http://www.w3.org/2000/svg"><path d="M317.016 271.266c.017-3.755-2.688-5.436-6.067-3.806l-39.637 19.089c-1.664.887-3.029 2.236-3.789 3.959-10.906 24.764-13.44 74.846-6.332 126.942a8.663 8.663 0 004.028 6.153l36.557 22.46c5.146 3.157 11.964.145 12.894-5.82 9.728-62.062 2.159-119.884 2.346-168.977z"/><path d="M316.94 152.397l-5.845-40.9a8.564 8.564 0 00-3.61-5.828l-79.036-54.332c-7.552-5.197-13.483-1.937-13.363 7.228.512 38.118-4.045 60.902-8.875 85.026-25.438 144.64-11.827 226.739 8.61 319.044a8.544 8.544 0 003.814 5.402l68.267 42.667a8.45 8.45 0 004.514 1.297 8.69 8.69 0 002.995-.538 8.51 8.51 0 005.163-5.495 470.895 470.895 0 007.979-29.491c.853-3.584-.742-7.287-3.883-9.216l-55.057-37.163a8.654 8.654 0 01-3.712-5.888c-8.9-60.74-5.444-116.685 8.917-144.589.768-1.493 1.988-2.671 3.456-3.49l52.395-29.321c2.927-1.553 4.668-4.685 4.489-7.996-1.536-28.595-1.647-56.337 2.756-83.857l.026-2.56zM295.325.947a8.534 8.534 0 00-8.866.64L242.248 33.16c-2.406 1.724-2.372 5.316.068 6.989l50.953 35.029c2.833 1.946 6.682-.077 6.682-3.516V8.534a8.527 8.527 0 00-4.626-7.587z"/></svg><svg fill="none" viewBox="0 0 18 8" id="dotted-arrow" xmlns="http://www.w3.org/2000/svg"><g clip-path="url(#alclip0_113_608)"><path d="M7.875 5.6c-.841 0-1.524-.716-1.524-1.6 0-.884.683-1.6 1.524-1.6s1.523.716 1.523 1.6c0 .884-.682 1.6-1.523 1.6zm-6.363 0C.677 5.6 0 4.884 0 4c0-.884.677-1.6 1.512-1.6s1.511.716 1.511 1.6c0 .884-.676 1.6-1.511 1.6zm12.203 2.17a.832.832 0 010-1.123L16.197 4l-2.482-2.647a.832.832 0 010-1.124.712.712 0 011.053 0l2.915 3.109a.82.82 0 01.32.662.82.82 0 01-.32.662l-2.915 3.109a.712.712 0 01-1.053 0z" fill="#1DA336"/></g><defs><clipPath id="alclip0_113_608"><path fill="#fff" d="M0 0h18v8H0z"/></clipPath></defs></svg><svg viewBox="0 0 16 16" id="drop" xmlns="http://www.w3.org/2000/svg"><path d="M8 0S3 8.2 3 11s2.2 5 5 5 5-2.2 5-5S8 0 8 0zm.9 14.9l-.2-1c1.4-.3 2.4-1.7 2.4-3.2 0-.3-.1-1.1-.8-2.6l.9-.4c.6 1.4.8 2.4.8 3 0 2-1.3 3.8-3.1 4.2z"/></svg><svg version="1.1" id="handshake" viewBox="0 0 512 512" xml:space="preserve" xmlns="http://www.w3.org/2000/svg"><style>.anst0{fill:#000}</style><path class="anst0" d="M395.517 101.081l-48.098 43.517a11.432 11.432 0 00-3.766 8.084 11.463 11.463 0 002.881 8.057c-2.584 1.05-5.182 1.866-7.76 2.384-25.462 5.176-52.844-6.736-73.884-3.551-1.368.214-2.687.463-3.986.684-3.614-.926-7.372-1.7-11.366-2.308-2.881-.435-5.784-.615-8.672-.615-8.291.021-16.562 1.389-24.778 2.646-8.202 1.271-16.314 2.459-23.962 2.459-4.022 0-7.905-.318-11.636-1.091-3.993-.788-8.27-2.557-12.61-5.01.345-1.168.511-2.412.47-3.655a11.554 11.554 0 00-3.78-8.084l-48.097-43.517C88.061 79.427-13.413 216.07 1.484 232.307c14.87 16.238 41.7 40.58 41.7 40.58a11.492 11.492 0 0016.362-.332l18.11-19.118c.249.283.504.553.726.843 1.554 1.796 2.743 3.593 3.213 4.595 2.031 4.319 7.206 14.849 14.103 26.63 3.454 5.887 7.338 12.085 11.504 17.999 2.115 2.972 4.284 5.894 6.537 8.658-6.108 7.559-6.067 18.656.594 26.166 7.435 8.402 20.266 9.169 28.661 1.728l.581-.518c-3.614 7.207-2.73 16.189 2.929 22.587 7.435 8.389 20.259 9.162 28.654 1.721l3.296-2.999c-4.512 7.4-3.896 17.185 2.15 24.011 7.434 8.374 20.258 9.148 28.647 1.734l5.085-4.602c-4.782 7.462-4.29 17.46 1.88 24.412 7.434 8.388 20.266 9.169 28.654 1.728l8.195-7.048c.795.373 1.534.711 2.245 1.036l5.611 3.275-.048-.041c2.784 1.672 5.707 3.026 8.72 3.973 3.02.946 6.143 1.499 9.321 1.499 3.455 0 6.985-.663 10.254-2.128 3.31-1.45 6.343-3.703 8.851-6.55 3.013-3.386 5.002-7.359 6.025-11.498a27.026 27.026 0 009.218 1.63c3.752 0 7.496-.774 10.979-2.308a27.256 27.256 0 009.39-6.854 27.06 27.06 0 006.316-12.776 27.08 27.08 0 005.382.56c3.738 0 7.49-.76 10.973-2.307a27.058 27.058 0 009.376-6.848 27.103 27.103 0 006.529-14.089c.774.069 1.555.097 2.322.097 4.498 0 8.913-.968 12.99-2.695 4.083-1.741 7.863-4.27 10.924-7.69 2.82-3.213 4.976-6.958 6.502-10.993 1.514-4.049 2.411-8.368 2.426-12.797 0-1.616-.125-3.248-.415-4.864 15.65-17.398 23.92-46.377 27.5-53.978.118-.249.242-.504.387-.761l17.612 18.58a11.442 11.442 0 008.098 3.587 11.508 11.508 0 008.263-3.255s26.83-24.342 41.707-40.58c14.872-16.237-86.588-152.88-115.006-131.226zm-5.77 219.559c-.884 2.363-2.184 4.532-3.461 5.956v-.014c-1.168 1.34-2.992 2.639-5.114 3.551-2.128.898-4.525 1.389-6.646 1.389-1.389 0-2.668-.214-3.697-.56a2.948 2.948 0 00-.187-.069l-23.153-22.346c-3.227-3.109-8.368-3.012-11.477.207-3.116 3.227-3.026 8.368.2 11.477l18.677 18.027c.069.179.131.352.221.532a10.892 10.892 0 011.168 4.94c-.014 2.612-.891 5.141-2.75 7.241a10.858 10.858 0 01-3.78 2.764c-1.389.621-2.909.94-4.422.94-2.618-.014-5.154-.899-7.268-2.764l-.477-.428c-.083-.097-.145-.208-.235-.318l-20.3-21.185c-3.096-3.247-8.243-3.358-11.476-.263-3.24 3.096-3.352 8.25-.249 11.484l17.204 17.978c.042.062.084.138.118.193a11.076 11.076 0 011.583 5.714c0 2.619-.884 5.155-2.75 7.262a11.145 11.145 0 01-3.78 2.764 11.102 11.102 0 01-4.436.912c-2.605 0-5.148-.884-7.255-2.742l-.312-.256-6.287-5.044-10.275-10.916a8.118 8.118 0 00-11.47-.332c-3.261 3.068-3.42 8.222-.345 11.477l9.763 10.357a10.97 10.97 0 011.534 5.569c-.007 2.598-.891 5.141-2.743 7.228-1.112 1.264-2.176 1.996-3.275 2.488-1.092.477-2.259.732-3.682.739-1.292 0-2.785-.228-4.436-.754-1.665-.525-3.455-1.34-5.32-2.432l-.049-.042-2.854-1.659c7.939-7.49 8.554-19.975 1.264-28.204-7.338-8.264-19.92-9.107-28.315-1.99l1.52-1.368c8.382-7.428 9.156-20.259 1.728-28.647-7.435-8.389-20.266-9.162-28.648-1.728l-4.968 4.484c4.788-7.441 4.291-17.46-1.886-24.412-7.428-8.388-20.245-9.169-28.647-1.727l-6.599 6.011c3.095-7.02 2.06-15.525-3.364-21.648-7.422-8.395-20.259-9.162-28.648-1.734l-13.985 12.396a153.052 153.052 0 01-5.244-7.007c-5.721-8.126-11.097-17.191-15.354-24.957-4.27-7.767-7.448-14.261-8.837-17.226-.732-1.555-1.604-2.978-2.543-4.346-1.464-2.135-3.144-4.118-4.864-5.991l68.695-72.516c6.081 3.696 12.624 6.716 19.685 8.167 5.031 1.022 10.012 1.395 14.884 1.395 9.279-.007 18.199-1.368 26.449-2.639 2.073-.332 4.111-.636 6.095-.94-6.185 4.27-12.182 9.335-18.573 15.284-18.179 16.977-33.885 37.713-42.584 47.137-8.706 9.411 7.477 25.745 33.228 18.255 25.758-7.476 36.856-26.685 36.856-26.685l32.322-11.601 32.088 7.345 77.567 69.828 13.397 12.962.27.222c.526.497.94 1.077 1.299 2.017.36.94.581 2.211.581 3.732.005 2.139-.478 4.703-1.376 7.066z"/></svg><svg viewBox="0 0 24 24" data-name="Flat Color" class="aoicon aoflat-color" id="medical" xmlns="http://www.w3.org/2000/svg"><rect x="4" y="5" width="16" height="17" rx="2"/><path d="M16 6a1 1 0 01-1 1H9a1 1 0 01-1-1 2 2 0 011.1-1.79 3 3 0 015.79 0A2 2 0 0116 6zm-2 7h-1v-1a1 1 0 00-2 0v1h-1a1 1 0 000 2h1v1a1 1 0 002 0v-1h1a1 1 0 000-2z" fill="#fff"/></svg><svg viewBox="0 0 100 100" data-name="Layer 1" id="medical-report" xmlns="http://www.w3.org/2000/svg"><defs><style>.apcls-1,.apcls-2{fill:none;stroke:#000;stroke-linejoin:round;stroke-width:2px}.apcls-2{stroke-linecap:round}</style></defs><path class="apcls-1" d="M75.29 23.2v62.28a2.08 2.08 0 01-2.08 2.08H26.79a2.08 2.08 0 01-2.08-2.08V23.2a2.08 2.08 0 012.08-2.08h9v2.25a1 1 0 001 1h26.38a1 1 0 001-1v-2.25h9a2.08 2.08 0 012.12 2.08z"/><path class="apcls-1" d="M71.13 22.16v60.2a1 1 0 01-1 1H29.91a1 1 0 01-1-1v-60.2a1 1 0 011-1h5.88v2.25a1 1 0 001 1h26.38a1 1 0 001-1v-2.29h5.88a1 1 0 011.08 1.04z"/><rect class="apcls-1" height="6.58" rx="1.04" width="28.43" x="35.79" y="17.83"/><circle class="apcls-1" cx="50" cy="15.14" r="2.69"/><path class="apcls-1" d="M61 24.41v5A1.56 1.56 0 0159.39 31H40.61a1.56 1.56 0 01-1.56-1.56v-5"/><path class="apcls-2" d="M33 52.85h5.7l1.63-7.37a.26.26 0 01.51 0l3.21 13.74a.26.26 0 00.51 0l3.27-19.56a.26.26 0 01.51 0l3.32 26.51a.26.26 0 00.51 0l3.28-22.27a.26.26 0 01.51 0l3.24 15.61a.26.26 0 00.51 0L63 46.85a.26.26 0 01.51 0l1.62 6H67"/></svg><svg viewBox="0 0 24 24" fill="none" id="message" xmlns="http://www.w3.org/2000/svg"><path d="M7 18.43h4l4.45 2.96a.997.997 0 001.55-.83v-2.13c3 0 5-2 5-5v-6c0-3-2-5-5-5H7c-3 0-5 2-5 5v6c0 3 2 5 5 5z" fill="#fff"/><path d="M15.5 11.25h-7c-.41 0-.75-.34-.75-.75s.34-.75.75-.75h7c.41 0 .75.34.75.75s-.34.75-.75.75z" fill="#1DA336"/></svg><svg viewBox="0 0 1024 1024" class="aricon" id="money" xmlns="http://www.w3.org/2000/svg"><path d="M200.99 814.55c-23.52-39.54-24.45-87.29-2.48-127.71l214.17-394.27h127.24l119.46 218.25 64.14-35.11-100.24-183.14h35.02v-73.14h-33.39l69.95-146.29H256l76.33 146.29h-39.76v73.14h36.84l-195.2 359.34c-34.39 63.34-32.93 138.11 3.91 200.04s101.86 98.91 173.91 98.91h89.3v-73.14h-89.3c-46-.01-87.52-23.61-111.04-63.17zm175.68-668.26h202.14l-34.98 73.14H414.84l-38.17-73.14z" fill="#0F1F3C"/><path d="M914.29 731.43V548.57H475.44v109.71H402.3v182.86h73.14v109.71h438.85V768h-73.14v-36.57h73.14zm-73.14-109.72v36.57h-36.57v-36.57h36.57zm-292.57 0h182.86v36.57H548.58v-36.57zm-73.14 109.72H658.3V768H475.44v-36.57zm73.14 146.28v-36.57h182.85v36.57H548.58zm292.57 0h-36.57v-36.57h36.57v36.57zM731.44 768v-36.57h36.57V768h-36.57z" fill="#0F1F3C"/></svg><svg viewBox="0 0 64 64" stroke-width="3" stroke="#000" fill="none" id="phone" xmlns="http://www.w3.org/2000/svg"><path d="M11.11 8.4a2.62 2.62 0 00-2.53 2.78c.35 6 2 20.64 9.9 29.77 9.46 11 21.78 14.79 34.42 14.23a2.68 2.68 0 002.52-2.65v-9.61a4 4 0 00-3.09-3.86L46 37.66a4 4 0 00-4.16 1.69l-1.4 2.12a1 1 0 01-1.22.37C36 40.45 23.17 34.45 21.76 24.33a1 1 0 01.48-1l2.54-1.55a4 4 0 001.81-4.21l-1.39-6.44a4 4 0 00-4-3.12z"/></svg><svg viewBox="0 0 131 153" id="pointer" xmlns="http://www.w3.org/2000/svg"><style>.atst2{fill:none}</style><path d="M12.2 22.8l105.2 43.5-35.8 14.2 38.1 38-11.5 11.5-38.6-38.6-15.9 34.1L12.2 22.8z"/><path class="atst2" id="at_x3C_Slice_x3E__100_" d="M0 0h131v153H0z"/></svg><svg fill="none" viewBox="0 0 9 13" id="slider-arrow" xmlns="http://www.w3.org/2000/svg"><path d="M7.5 1L2 6.5 7.5 12" stroke="#17C237" stroke-width="2"/></svg><svg fill="none" viewBox="0 0 34 33" id="star" xmlns="http://www.w3.org/2000/svg"><path d="M15.815 1.51c.563-1.066 2.09-1.066 2.652 0l4.18 7.911a1.5 1.5 0 001.071.777l8.823 1.525c1.189.205 1.66 1.66.82 2.524l-6.239 6.41a1.5 1.5 0 00-.41 1.26l1.275 8.848c.172 1.193-1.063 2.091-2.146 1.56l-8.039-3.947a1.5 1.5 0 00-1.322 0l-8.039 3.947c-1.082.531-2.318-.367-2.146-1.56l1.275-8.849a1.5 1.5 0 00-.41-1.26L.922 14.247c-.842-.865-.37-2.319.82-2.524l8.822-1.525a1.5 1.5 0 001.071-.777l4.18-7.91z" fill="#F9C758"/></svg><svg fill="#08c" viewBox="0 0 32 32" id="telegram" xmlns="http://www.w3.org/2000/svg"><path d="M22.122 10.04h.022c.209 0 .403.065.562.177l-.003-.002a.632.632 0 01.213.403v.003a2.553 2.553 0 01.024.598v-.009c-.225 2.369-1.201 8.114-1.697 10.766-.21 1.123-.623 1.499-1.023 1.535-.869.081-1.529-.574-2.371-1.126-1.318-.865-2.063-1.403-3.342-2.246-1.479-.973-.52-1.51.322-2.384.221-.23 4.052-3.715 4.127-4.031a.308.308 0 00-.07-.265.34.34 0 00-.185-.053.364.364 0 00-.128.024l.002-.001q-.198.045-6.316 4.174a2.805 2.805 0 01-1.619.599h-.006a10.542 10.542 0 01-2.401-.573l.074.024c-.938-.306-1.683-.467-1.619-.985q.051-.404 1.114-.827 6.548-2.853 8.733-3.761a22.627 22.627 0 015.429-2.01l.157-.031zM15.93 1.025C7.628 1.045.905 7.78.905 16.085c0 8.317 6.742 15.06 15.06 15.06s15.06-6.742 15.06-15.06c0-8.305-6.723-15.04-15.023-15.06H15.93z"/></svg><svg viewBox="0 0 16 16" id="tools" xmlns="http://www.w3.org/2000/svg"><path d="M10.3 8.2l-.9.9.9.9-1.2 1.2 4.3 4.3c.6.6 1.5.6 2.1 0s.6-1.5 0-2.1l-5.2-5.2zm3.9 6.8c-.4 0-.8-.3-.8-.8 0-.4.3-.8.8-.8s.8.3.8.8-.3.8-.8.8zM3.6 8l.9-.6L6 5.7l.9.9.9-.9-.1-.1c.2-.5.3-1 .3-1.6 0-2.2-1.8-4-4-4-.6 0-1.1.1-1.6.3l2.9 2.9-2.1 2.1L.3 2.4C.1 2.9 0 3.4 0 4c0 2.1 1.6 3.7 3.6 4z"/><path d="M8 10.8l.9-.8-.9-.9 5.7-5.7 1.2-.4L16 .8l-.7-.7-2.3 1-.5 1.2L6.9 8 6 7.1l-.8.9s.8.6-.1 1.5c-.5.5-1.3-.1-2.8 1.4L.2 13s-.6 1 .6 2.2 2.2.6 2.2.6l2.1-2.1c1.4-1.4.9-2.3 1.3-2.7.9-.9 1.6-.2 1.6-.2zm-3.1-.4l.7.7-3.8 3.8-.7-.7z"/></svg><svg viewBox="0 0 52 52" data-name="Layer 1" id="warranty" xmlns="http://www.w3.org/2000/svg"><path d="M26 2c3 0 5.43 3.29 8.09 4.42s6.82.51 8.84 2.65 1.51 6.07 2.65 8.84S50 23 50 26s-3.29 5.43-4.42 8.09-.51 6.82-2.65 8.84-6.07 1.53-8.84 2.65S29 50 26 50s-5.43-3.29-8.09-4.42-6.82-.51-8.84-2.65-1.53-6.07-2.65-8.84S2 29 2 26s3.29-5.43 4.42-8.09.51-6.82 2.65-8.84 6.07-1.53 8.84-2.65S23 2 26 2zm0 7.58A16.42 16.42 0 1042.42 26 16.47 16.47 0 0026 9.58zm7.62 9.15l1.61 1.52a1.25 1.25 0 010 1.51L25.08 33.07a2.07 2.07 0 01-1.61.7 2.23 2.23 0 01-1.61-.7l-5.49-5.47a1 1 0 01-.1-1.42l.1-.11L18 24.56a1.1 1.1 0 011.54-.07l.07.07 3.89 4 8.59-9.8a1.1 1.1 0 011.53-.03z"/></svg><svg viewBox="0 0 24 24" id="whatsapp" xmlns="http://www.w3.org/2000/svg"><path d="M17.6 6.32A7.851 7.851 0 0012 4a7.94 7.94 0 00-6.88 11.89L4 20l4.2-1.1a7.93 7.93 0 003.79 1 8 8 0 008-7.93 8 8 0 00-2.39-5.65zM12 18.53a6.58 6.58 0 01-3.36-.92l-.24-.15-2.49.66.66-2.43-.16-.25a6.6 6.6 0 0110.25-8.17 6.65 6.65 0 012 4.66 6.66 6.66 0 01-6.66 6.6zm3.61-4.94c-.2-.1-1.17-.58-1.35-.64-.18-.06-.32-.1-.45.1a9.004 9.004 0 01-.63.77c-.11.14-.23.15-.43 0a5.33 5.33 0 01-2.69-2.35c-.21-.35.2-.33.58-1.08a.38.38 0 000-.35c0-.1-.45-1.08-.61-1.47-.16-.39-.32-.33-.45-.34h-.39a.71.71 0 00-.53.25A2.19 2.19 0 008 10.17a3.82 3.82 0 00.81 2.05 8.89 8.89 0 003.39 3 3.85 3.85 0 002.38.5 1.999 1.999 0 001.33-.94 1.62 1.62 0 00.12-.94c-.09-.1-.22-.15-.42-.25z" fill="#43d854"/></svg><svg viewBox="0 0 24 24" fill="none" id="wind" xmlns="http://www.w3.org/2000/svg"><path opacity=".4" d="M2 13.1l2.5-1.5c1.54-.92 3.46-.92 5 0s3.46.92 5 0 3.46-.92 5 0l2.5 1.5" stroke="#292D32" stroke-width="1.5" stroke-miterlimit="10" stroke-linecap="round" stroke-linejoin="round"/><path d="M2 3.9l2.5 1.5c1.54.92 3.46.92 5 0s3.46-.92 5 0 3.46.92 5 0L22 3.9M2 20.1l2.5-1.5c1.54-.92 3.46-.92 5 0s3.46.92 5 0 3.46-.92 5 0l2.5 1.5" stroke="#292D32" stroke-width="1.5" stroke-miterlimit="10" stroke-linecap="round" stroke-linejoin="round"/></svg></svg>